<svg t="1588224839885" class="icon" viewBox="0 0 1024 1024" version="1.1" xmlns="http://www.w3.org/2000/svg" p-id="3387" width="64" height="64"><path d="M652 105.312a27.968 27.968 0 0 1 46.816 20.704v201.984l-267.52 211.968-137.792-104.512zM192.416 533.408L76.16 633.6a37.312 37.312 0 0 0-2.56 52.704c0.8 0.864 1.6 1.696 2.464 2.464l49.312 44.8a37.312 37.312 0 0 0 47.648 2.112L307.2 637.92z" fill="#1296db" p-id="3388"></path><path d="M698.816 695.968L173.184 288.224a37.28 37.28 0 0 0-47.648 2.112l-49.312 44.8a37.312 37.312 0 0 0-2.464 52.704c0.8 0.864 1.6 1.696 2.464 2.464l575.68 528a28 28 0 0 0 46.912-20.64z" fill="#1296db" p-id="3389"></path><path d="M743.808 951.904a55.84 55.84 0 0 1-63.648-10.816A32.8 32.8 0 0 0 736 917.888V106.112a32.8 32.8 0 0 0-55.968-23.2 55.84 55.84 0 0 1 63.648-10.816l184.48 88.704A55.936 55.936 0 0 1 960 211.2v601.6a55.936 55.936 0 0 1-31.712 50.432z" fill="#1296db" p-id="3390"></path></svg>